# xmcd
#
# Track frame offsets: 
#        150
#        21311
#        41285
#        59525
#        90287
#        108546
#        124306
#        152698
#        173931
#
# Disc length: 2537 seconds
#
# Revision: 0
# Processed by: cddbd v1.5.2PL0 Copyright (c) Steve Scherf et al.
# Submitted via: ExactAudioCopy v1.3
#
DISCID=6f09e709
DTITLE=Celso Salim Band - Mama's Hometown
DYEAR=2018
DGENRE=Electric Blues
TTITLE0=Mad Dog
TTITLE1=Locked Out In Misery
TTITLE2=Let It Burn
TTITLE3=No Need To Be Alone
TTITLE4=Got To Find That Babe
TTITLE5=Down The Aisle
TTITLE6=Mama's Hometown
TTITLE7=Best Of Luck
TTITLE8=In My Time Of Dying
EXTD=
EXTT0=
EXTT1=
EXTT2=
EXTT3=
EXTT4=
EXTT5=
EXTT6=
EXTT7=
EXTT8=
PLAYORDER=
